# xmcd
#
# Track frame offsets: 
#        150
#        16038
#        30939
#        44707
#        58549
#        77607
#        95241
#        112257
#        128051
#        146326
#        160965
#
# Disc length: 2379 seconds
#
# Revision: 0
# Processed by: cddbd v1.5.2PL0 Copyright (c) Steve Scherf et al.
# Submitted via: ExactAudioCopyFreeDBPlugin 1.0
#
DISCID=8c09490b
DTITLE=Louise Hoffsten - Looking for Mr God
DYEAR=2013
DGENRE=Blues
TTITLE0=I'll get By
TTITLE1=Walk With the Rhythm
TTITLE2=Only the dead fish follow the stream
TTITLE3=Looking for Mr God
TTITLE4=An empty Walentines Box
TTITLE5=Don't steal my dreams
TTITLE6=Go for Love
TTITLE7=Hey Mr Hyde
TTITLE8=Tough Love
TTITLE9=Empty Air
TTITLE10=I fall Down
EXTD=
EXTT0=
EXTT1=
EXTT2=
EXTT3=
EXTT4=
EXTT5=
EXTT6=
EXTT7=
EXTT8=
EXTT9=
EXTT10=
PLAYORDER=
